<svg width="334" height="37" viewBox="0 0 334 37" fill="none" xmlns="http://www.w3.org/2000/svg">
<path d="M35.289 19.0039H27.743L41.612 0.00390625H21.947C18.6921 0.00438387 15.5251 1.06082 12.9217 3.01453C10.3184 4.96824 8.41904 7.7138 7.509 10.8389L0 36.6299H22.732L35.289 19.0039Z" fill="#FA2A52"/>
<path d="M60.7669 0.00390625H52.9599L41.2809 12.6129H50.0419L23.2319 36.6289H52.2939C55.5493 36.629 58.7167 35.5728 61.3206 33.6191C63.9244 31.6653 65.824 28.9194 66.7339 25.7939L74.243 0.00292969L60.7669 0.00390625Z" fill="#4199FF"/>
<path d="M79.184 35.079H85.043L84.7 36.194H76.991L79.542 28.114H81.375L79.184 35.079Z" fill="#414E64"/>
<path d="M114.983 28.61C115.185 28.753 115.349 28.9441 115.458 29.166C115.568 29.3879 115.621 29.6336 115.612 29.881C115.53 30.8144 115.306 31.7297 114.946 32.5951C114.408 34.2411 114.067 34.8381 113.33 35.3561C112.378 36.0461 111.263 36.265 108.675 36.265C107.528 36.359 106.373 36.2576 105.259 35.9651C104.922 35.8956 104.621 35.7097 104.407 35.4399C104.194 35.1702 104.082 34.8338 104.092 34.49C104.175 33.5098 104.411 32.5488 104.792 31.6421C105.332 30.0071 105.71 29.401 106.536 28.855C107.523 28.226 108.549 28.044 111.28 28.044C113.491 28.04 114.263 28.162 114.983 28.61ZM107.417 29.881C107.074 30.293 107.04 30.365 106.482 32.159C105.961 33.794 105.961 33.8051 105.961 34.1941C105.938 34.3861 105.988 34.5798 106.101 34.7368C106.214 34.8939 106.382 35.0028 106.571 35.042C107.393 35.2123 108.235 35.2655 109.071 35.2C111.192 35.2 111.75 35.066 112.271 34.424C112.629 33.988 112.683 33.866 113.223 32.135C113.744 30.512 113.744 30.5121 113.744 30.1111C113.763 29.9194 113.711 29.7276 113.598 29.5714C113.486 29.4153 113.32 29.3057 113.132 29.263C112.323 29.0962 111.495 29.0437 110.672 29.107C108.495 29.107 107.955 29.2401 107.417 29.8821V29.881Z" fill="#414E64"/>
<path d="M142.531 30.392C142.615 30.1788 142.664 29.953 142.674 29.7239C142.674 29.2169 142.174 29.0599 140.481 29.0599C138.596 29.0599 138.021 29.1599 137.607 29.5309C137.26 29.8759 137.06 30.3419 137.05 30.8309C137.05 31.2059 137.319 31.399 137.913 31.473C138.236 31.51 138.236 31.5099 139.943 31.5729C140.835 31.5596 141.726 31.6367 142.602 31.8029C143.302 31.9619 143.68 32.3609 143.68 32.9029C143.609 33.7936 143.264 34.6403 142.691 35.3259C142.1 35.8156 141.371 36.1083 140.606 36.163C139.704 36.252 138.798 36.2884 137.892 36.272C135.862 36.272 135.233 36.2 134.604 35.91C134.413 35.8242 134.25 35.6871 134.133 35.514C134.016 35.341 133.949 35.1388 133.94 34.9299C133.949 34.4987 134.034 34.0723 134.189 33.6699H135.97L135.916 33.8519C135.851 34.0608 135.809 34.2761 135.79 34.4939C135.788 34.6148 135.821 34.7336 135.885 34.8362C135.949 34.9389 136.041 35.021 136.15 35.0729C136.923 35.2779 137.727 35.3352 138.521 35.2419C140.588 35.2419 141.074 35.0989 141.434 34.4069C141.616 34.0731 141.732 33.7069 141.774 33.3289C141.774 33.0489 141.631 32.8799 141.308 32.7819C140.532 32.6329 139.741 32.5762 138.952 32.6129C137.966 32.6817 136.975 32.5803 136.024 32.3129C135.447 32.0939 135.124 31.732 135.124 31.27C135.138 30.8004 135.249 30.3387 135.45 29.914C135.65 29.4893 135.937 29.1107 136.291 28.8019C137.063 28.2449 138.159 28.0489 140.657 28.0489C141.756 27.937 142.866 28.0657 143.911 28.426C144.101 28.509 144.262 28.6463 144.374 28.8207C144.486 28.9951 144.544 29.1987 144.54 29.4059C144.526 29.7471 144.453 30.0834 144.325 30.4L142.531 30.392Z" fill="#414E64"/>
<path d="M176.686 36.194H174.838L177.029 29.2291H173.363L173.721 28.114H182.942L182.582 29.2401L178.882 29.2291L176.686 36.194Z" fill="#414E64"/>
<path d="M210.708 28.61C210.91 28.7536 211.073 28.9448 211.182 29.1665C211.292 29.3883 211.345 29.6337 211.337 29.881C211.255 30.8144 211.03 31.7298 210.671 32.5951C210.131 34.2411 209.79 34.8381 209.053 35.3561C208.101 36.0461 206.986 36.265 204.4 36.265C203.252 36.3591 202.096 36.2577 200.982 35.9651C200.645 35.8956 200.344 35.7097 200.13 35.4399C199.917 35.1702 199.805 34.8338 199.815 34.49C199.897 33.5097 200.133 32.5485 200.515 31.6421C201.053 30.0071 201.43 29.401 202.257 28.855C203.246 28.226 204.27 28.044 207.003 28.044C209.214 28.04 209.988 28.162 210.708 28.61ZM203.14 29.881C202.797 30.293 202.763 30.365 202.205 32.159C201.684 33.794 201.684 33.8051 201.684 34.1941C201.661 34.3864 201.712 34.5802 201.825 34.7372C201.938 34.8942 202.106 35.003 202.296 35.042C203.118 35.2127 203.959 35.2659 204.796 35.2C206.917 35.2 207.475 35.066 207.996 34.424C208.356 33.988 208.41 33.866 208.948 32.135C209.471 30.512 209.471 30.5121 209.471 30.1111C209.49 29.9194 209.438 29.7276 209.325 29.5714C209.212 29.4153 209.047 29.3057 208.859 29.263C208.05 29.0964 207.221 29.0439 206.397 29.107C204.22 29.107 203.68 29.2401 203.14 29.8821V29.881Z" fill="#414E64"/>
<path d="M231.858 35.079H237.717L237.376 36.194H229.665L232.218 28.114H234.051L231.858 35.079Z" fill="#414E64"/>
<path d="M259.412 28.1139H265.145C265.781 28.1072 266.417 28.1551 267.045 28.2569C267.507 28.2776 267.944 28.471 268.27 28.7988C268.597 29.1266 268.788 29.5649 268.806 30.0269C268.727 31.0054 268.484 31.9637 268.088 32.8619C267.957 33.4579 267.693 34.0167 267.316 34.4969C266.939 34.9771 266.46 35.3664 265.912 35.6359C264.917 36.0278 263.855 36.2172 262.786 36.1929H256.854L259.412 28.1139ZM262.594 35.1269C264.41 35.1269 265.294 34.7759 265.794 33.8669C266.337 32.7494 266.713 31.558 266.909 30.3309C266.909 29.4959 266.317 29.1919 264.681 29.1919H260.905L259.037 35.1269H262.594Z" fill="#414E64"/>
<path d="M298.421 28.61C298.623 28.753 298.787 28.9441 298.896 29.166C299.006 29.3879 299.059 29.6336 299.05 29.881C298.969 30.8144 298.745 31.7298 298.386 32.5951C297.846 34.2411 297.503 34.8381 296.768 35.3561C295.814 36.0461 294.699 36.265 292.113 36.265C290.966 36.359 289.811 36.2576 288.697 35.9651C288.36 35.8956 288.059 35.7097 287.845 35.4399C287.632 35.1702 287.52 34.8338 287.53 34.49C287.611 33.5096 287.848 32.5484 288.23 31.6421C288.768 30.0071 289.148 29.401 289.974 28.855C290.963 28.226 291.985 28.044 294.718 28.044C296.929 28.04 297.701 28.162 298.421 28.61ZM290.855 29.881C290.512 30.293 290.475 30.365 289.918 32.159C289.397 33.794 289.397 33.8051 289.397 34.1941C289.374 34.3864 289.425 34.5802 289.538 34.7372C289.651 34.8942 289.819 35.003 290.009 35.042C290.831 35.2124 291.673 35.2656 292.509 35.2C294.628 35.2 295.186 35.066 295.709 34.424C296.069 33.988 296.125 33.866 296.663 32.135C297.184 30.512 297.184 30.5121 297.184 30.1111C297.203 29.9197 297.151 29.7281 297.039 29.572C296.927 29.4159 296.762 29.3061 296.574 29.263C295.764 29.0964 294.935 29.0438 294.11 29.107C291.933 29.107 291.393 29.2401 290.855 29.8821V29.881Z" fill="#414E64"/>
<path d="M325.969 30.3921C326.054 30.1789 326.103 29.9532 326.114 29.724C326.114 29.217 325.609 29.06 323.921 29.06C322.034 29.06 321.457 29.16 321.045 29.531C320.698 29.876 320.499 30.342 320.488 30.831C320.488 31.206 320.757 31.3991 321.351 31.4731C321.674 31.5101 321.674 31.51 323.381 31.573C324.274 31.5598 325.166 31.6368 326.043 31.803C326.743 31.962 327.121 32.361 327.121 32.903C327.05 33.7935 326.704 34.6399 326.132 35.326C325.542 35.8152 324.813 36.1079 324.048 36.1631C323.146 36.2519 322.24 36.2883 321.334 36.2721C319.302 36.2721 318.673 36.2001 318.043 35.9101C317.853 35.8239 317.69 35.6867 317.573 35.5138C317.456 35.3408 317.389 35.1387 317.379 34.93C317.389 34.4985 317.474 34.072 317.631 33.67H319.41L319.358 33.852C319.292 34.0607 319.249 34.276 319.23 34.4941C319.228 34.6149 319.261 34.7337 319.325 34.8363C319.389 34.939 319.481 35.0211 319.59 35.073C320.364 35.2778 321.169 35.3352 321.963 35.242C324.03 35.242 324.516 35.099 324.874 34.407C325.057 34.0733 325.174 33.7072 325.217 33.329C325.217 33.049 325.072 32.88 324.748 32.782C323.972 32.633 323.181 32.5763 322.392 32.613C321.406 32.6819 320.416 32.5804 319.464 32.313C318.889 32.094 318.564 31.7321 318.564 31.2701C318.577 30.7987 318.688 30.3353 318.889 29.9089C319.091 29.4826 319.378 29.1026 319.734 28.7931C320.508 28.2361 321.604 28.04 324.1 28.04C325.199 27.9279 326.31 28.0565 327.354 28.417C327.544 28.4996 327.706 28.6369 327.818 28.8114C327.93 28.9859 327.987 29.1898 327.983 29.3971C327.97 29.7384 327.897 30.0748 327.768 30.391L325.969 30.3921Z" fill="#414E64"/>
<path d="M158.412 13.2079H179.912L181.074 9.06494H151.142L147.557 21.7999H179.063L180.415 16.9769H157.355L158.412 13.2079Z" fill="#1D252F"/>
<path d="M131.349 0.49585H122.776L116.776 21.7959H144.734L146.213 16.5259H126.831L131.349 0.49585Z" fill="#1D252F"/>
<path d="M91.4901 13.2079H112.99L114.152 9.06494H84.2211L80.6331 21.7999H112.139L113.491 16.9769H90.433L91.4901 13.2079Z" fill="#1D252F"/>
<path d="M93.726 5.33087V5.31885H116.447L117.798 0.49585H86.633L85.272 5.33087H93.726Z" fill="#1D252F"/>
<path d="M280.988 0.49585H227.105L225.628 5.76489H238.17L233.652 21.7989H242.224L246.744 5.76489H246.831V5.74286H263.754V5.73389H277.482C278.414 5.66162 279.351 5.71472 280.269 5.89185C281.115 6.08485 281.536 6.53189 281.536 7.19989C281.494 7.75201 281.394 8.29807 281.236 8.82886C281.172 9.21666 281.021 9.58496 280.795 9.90619C280.568 10.2274 280.272 10.4933 279.928 10.6839C279.084 11.0979 278.112 11.2259 275.622 11.2259H258.219L255.247 21.7979H263.776L265.296 16.4319H273.933C274.923 16.3848 275.915 16.4488 276.89 16.6229C277.222 16.6664 277.526 16.8307 277.744 17.0844C277.962 17.3381 278.079 17.6634 278.072 17.9979C278.055 18.3888 277.985 18.7756 277.864 19.1479L277.146 21.7989H285.803L286.773 18.4449C287.076 17.5352 287.261 16.5905 287.324 15.6339C287.302 15.2436 287.148 14.8725 286.887 14.5817C286.626 14.2908 286.274 14.0976 285.888 14.0339C285.152 13.8627 284.403 13.7553 283.649 13.7129C286.183 13.2989 287.323 12.7889 288.421 11.5409C289.837 9.53204 290.59 7.13134 290.575 4.67389C290.576 1.41989 288.463 0.49585 280.988 0.49585Z" fill="#1D252F"/>
<path d="M324.349 9.24994C324.178 10.0569 323.906 11.0699 323.505 12.4109C322.492 15.5109 321.267 16.467 317.974 16.689C316.495 16.789 314.341 16.819 310.54 16.819C303.276 16.819 302.009 16.4669 302.009 14.4869C302.236 11.9393 302.999 9.46837 304.248 7.23596C305.387 5.70396 306.782 5.47894 314.933 5.47894C316.603 5.47894 317.983 5.48994 319.133 5.51794H333.547C333.613 4.61842 333.388 3.72152 332.903 2.96088C332.418 2.20023 331.7 1.61656 330.857 1.29694C328.408 0.370936 326.757 0.272949 315.398 0.272949C308.22 0.272949 305.474 0.402964 303.025 0.912964C298.042 1.93396 296.014 3.97798 294.409 9.59998C293.184 13.814 292.804 15.478 292.804 16.723C292.721 17.6339 292.941 18.5468 293.429 19.3204C293.917 20.0941 294.646 20.6854 295.504 21.003C297.825 21.864 300.104 22.025 309.946 22.025C313.705 22.025 317.38 21.96 319.154 21.897C323.754 21.674 326.544 20.7769 328.654 18.8619C330.214 17.4239 331.103 15.637 332.159 12.027C332.48 10.908 332.725 10.012 332.92 9.25098L324.349 9.24994Z" fill="#1D252F"/>
<path d="M152.194 5.33087H160.646V5.31885H183.372L184.723 0.49585H153.555L152.194 5.33087Z" fill="#1D252F"/>
<path d="M219.558 0.91095C217.697 0.46395 214.743 0.333984 206.211 0.333984C199.537 0.333984 196.711 0.526931 194.344 1.16693C190.205 2.28393 188.431 4.07395 186.954 8.63995C185.995 11.2291 185.384 13.934 185.137 16.684C185.137 18.601 185.77 19.846 187.122 20.551C189.191 21.668 191.682 21.951 199.536 21.951C203.128 21.951 207.136 21.9179 208.449 21.8879C214.277 21.7299 216.98 21.025 218.839 19.142C219.852 18.12 220.316 17.1289 221.245 13.7759H212.968C212.87 14.3876 212.594 14.9567 212.173 15.4114C211.752 15.8661 211.206 16.186 210.604 16.3309C209.378 16.7149 208.365 16.778 201.904 16.778C195.275 16.778 194.047 16.396 194.047 14.416C194.174 12.7873 194.53 11.1847 195.103 9.65497C195.992 6.91097 196.71 6.14298 198.947 5.69598C201.5 5.43027 204.069 5.34468 206.634 5.43994C213.519 5.43994 214.445 5.63094 214.445 7.09894C214.432 7.39009 214.39 7.67923 214.319 7.96198H222.512C222.895 6.89469 223.108 5.77414 223.145 4.64093C223.144 2.63493 222.047 1.51595 219.558 0.91095Z" fill="#1D252F"/>
</svg>
